<?xml version="1.0" encoding="utf-8"?>
<!-- Generator: Adobe Illustrator 16.0.4, SVG Export Plug-In . SVG Version: 6.00 Build 0)  -->
<!DOCTYPE svg PUBLIC "-//W3C//DTD SVG 1.1//EN" "http://www.w3.org/Graphics/SVG/1.1/DTD/svg11.dtd">
<svg version="1.1" id="Layer_1" xmlns="http://www.w3.org/2000/svg" xmlns:xlink="http://www.w3.org/1999/xlink" x="0px" y="0px"
	 width="724.102px" height="227.861px" viewBox="0 0 724.102 227.861" enable-background="new 0 0 724.102 227.861"
	 xml:space="preserve">
<g>
	<path fill="#86bc25" d="M37.118,128.7c-3.065,0-5.54-2.468-5.54-5.532V94.01c0-12.004,8.2-25.96,18.661-31.817l24.183-13.503
		c2.684-1.5,6.047-0.543,7.522,2.124c1.501,2.666,0.554,6.046-2.119,7.529L55.631,71.858c-6.911,3.871-12.985,14.217-12.985,22.15
		v29.158C42.646,126.232,40.172,128.7,37.118,128.7"/>
	<path fill="#86bc25" d="M102.907,190.052c-6.907,0-13.465-1.604-18.469-4.479L50.04,165.709c-5.894-3.401-9.238-8.438-9.181-13.811
		c0.066-5.381,3.532-10.325,9.509-13.588l33.972-18.544c6.938-3.789,13.025-14.049,13.025-21.95V56.023
		c0-11.567,7.17-16.734,14.262-16.734c3.17,0,6.448,0.958,9.741,2.859l34.39,19.856c10.358,5.993,18.476,20.029,18.476,32v39.72
		c0,11.959-8.117,25.999-18.476,31.983l-34.39,19.864C116.369,188.447,109.798,190.052,102.907,190.052 M111.628,50.356
		c-2.776,0-3.189,3.542-3.189,5.667v41.793c0,11.995-8.264,25.925-18.796,31.669l-33.967,18.533
		c-2.735,1.502-3.742,3.057-3.749,4.021c-0.013,0.942,0.94,2.526,3.652,4.092l34.385,19.85c3.305,1.903,8.013,3.002,12.942,3.002
		c4.914,0,9.636-1.099,12.935-3.002l34.383-19.85c6.886-3.979,12.936-14.463,12.936-22.404v-39.72
		c0-7.953-6.05-18.425-12.936-22.399l-34.383-19.861C113.851,50.594,112.446,50.356,111.628,50.356"/>
	<path fill="#86bc25" d="M102.906,227.861c-6.907,0-13.462-1.584-18.468-4.469l-67.139-38.781
		C6.92,178.629-1.113,164.562-1.004,152.575l0.71-74.355c0.116-11.893,8.13-26.087,18.235-32.308L84.559,4.887
		C89.67,1.734,96.4,0,103.518,0c6.647,0,12.992,1.541,17.85,4.362l67.145,38.746c10.359,5.972,18.476,20.027,18.476,31.981v77.536
		c0,11.959-8.117,26.016-18.476,31.983l-67.145,38.783C116.369,226.277,109.797,227.861,102.906,227.861 M103.518,11.069
		c-5.011,0-9.81,1.181-13.14,3.232L23.752,55.344c-6.842,4.21-12.91,14.944-12.987,22.972l-0.703,74.376
		c-0.076,7.924,5.891,18.36,12.768,22.347l67.134,38.752c3.305,1.905,8.013,3.01,12.941,3.01c4.914,0,9.637-1.104,12.936-3.01
		l67.139-38.752c6.886-3.982,12.934-14.45,12.934-22.41V75.092c0-7.952-6.048-18.428-12.934-22.397L115.842,13.94
		C112.678,12.105,108.188,11.069,103.518,11.069"/>
	<path fill="#86bc25" d="M318.467,164.548c-0.142,0-0.271,0-0.419-0.019c-5.057-0.403-5.232-5.314-5.333-7.955
		c-0.091-2.744-0.142-7.312-0.142-13.609c0-11.727-7.352-16.107-13.516-17.697c-1.992-0.515-4.218-0.928-6.614-1.226
		c-1.134-0.142-2.088-0.239-2.905-0.305c-1.797,0.101-3.692,0.163-5.655,0.204c-2.057-0.064-3.788-0.939-4.821-2.59
		c-1.132-1.811-1.11-4.211,0.027-6.005c1.803-2.862,4.875-3.264,10.775-2.715c24.272-1.45,24.126-7.883,23.977-14.67
		c-0.004-0.71-0.025-1.415-0.025-2.113c0-6.75-8.024-14.426-15.072-14.426c-1.879,0-3.269-0.017-4.562-0.032
		c-2.623-0.026-4.866-0.056-10.3,0.07c-3.082,0.098-5.59-2.361-5.67-5.417c-0.057-3.054,2.371-5.586,5.426-5.653
		c5.644-0.121,7.942-0.091,10.665-0.067c1.258,0.014,2.604,0.031,4.439,0.031c13.191,0,26.152,12.621,26.152,25.494
		c0,0.625,0.005,1.252,0.021,1.877c0.207,9.947-2.25,17.345-12.458,21.719c5.765,4.129,11.183,11.271,11.183,23.521
		c0,9.328,0.116,12.905,0.194,14.261c0.238,0.786,0.309,1.637,0.181,2.514C323.583,162.439,321.172,164.548,318.467,164.548"/>
	<path fill="#86bc25" d="M262.225,164.398h-0.023c-3.062-0.014-5.521-2.492-5.51-5.551l0.434-82.344
		c0.014-3.057,2.492-5.514,5.542-5.514h0.021c3.055,0.014,5.517,2.511,5.503,5.566l-0.426,82.341
		C267.753,161.945,265.271,164.398,262.225,164.398"/>
	<path fill="#86bc25" d="M396.97,165.816c-22.531,0-37.102-11.522-37.102-29.374v-60.62c0-3.052,2.466-5.522,5.538-5.522
		c3.055,0,5.532,2.472,5.532,5.522v60.62c0,11.474,9.733,18.312,26.03,18.312c3.057,0,5.533,2.479,5.533,5.533
		S400.025,165.816,396.97,165.816"/>
	<path fill="#86bc25" d="M399.599,165.816h-8.192c-3.062,0-5.54-2.475-5.54-5.526c0-3.056,2.479-5.533,5.54-5.533h8.192
		c16.312,0,26.037-6.84,26.037-18.312v-60.62c0-3.052,2.479-5.522,5.531-5.522c3.067,0,5.541,2.472,5.541,5.522v60.62
		C436.708,154.294,422.144,165.816,399.599,165.816"/>
	<path fill="#86bc25" d="M515.933,163.885h-34.791c-3.053,0-5.541-2.47-5.541-5.521v-19.338c0-6.345-0.167-20.137-0.334-33.482
		c-0.146-12.22-0.309-23.928-0.309-28.874c0-3.068,2.479-5.54,5.545-5.54c3.054,0,5.541,2.472,5.541,5.54
		c0,4.914,0.143,16.568,0.289,28.734c0.168,13.371,0.343,27.205,0.343,33.623v13.791h29.257c8.808,0,16.093-6.441,16.947-14.979
		c0.253-2.48-0.047-6.074-2.854-9.172c-4.166-4.612-12.844-7.059-25.09-7.059c-3.06,0-5.525-2.48-5.525-5.541
		c0-3.052,2.468-5.54,5.525-5.54c15.684,0,26.874,3.611,33.305,10.704c5.822,6.43,6.033,13.85,5.669,17.699
		C542.465,153.166,530.451,163.885,515.933,163.885"/>
	<path fill="#86bc25" d="M506.419,122.342c-3.053,0-5.539-2.466-5.539-5.521c0-3.057,2.486-5.541,5.539-5.541
		c15.931,0,22.713-5.458,22.713-18.264c0-3.273-2.736-12.307-11.562-12.307h-14.862c-3.061,0-5.539-2.47-5.539-5.541
		c0-3.055,2.479-5.528,5.539-5.528h14.862c15.438,0,22.634,13.945,22.634,23.376C540.204,106.406,534.343,122.342,506.419,122.342"
		/>
	<path fill="#86bc25" d="M588.349,165.786c-3.062,0-5.533-2.47-5.533-5.521V75.849c0-3.055,2.471-5.527,5.533-5.527
		c3.061,0,5.535,2.474,5.535,5.527v84.416C593.884,163.316,591.407,165.786,588.349,165.786"/>
	<path fill="#86bc25" d="M638.359,165.32c-1.369,0-2.734-0.514-3.809-1.524c-2.221-2.101-2.316-5.609-0.209-7.829l79.199-83.546
		c2.104-2.223,5.605-2.317,7.826-0.222c2.219,2.113,2.316,5.61,0.213,7.833l-79.207,83.549
		C641.286,164.734,639.823,165.32,638.359,165.32"/>
	<path fill="#86bc25" d="M663.013,108.236c-1.479,0-2.963-0.58-4.053-1.764l-24.65-26.484c-2.084-2.234-1.965-5.735,0.275-7.819
		c2.223-2.082,5.734-1.958,7.822,0.279l24.65,26.483c2.093,2.235,1.966,5.752-0.271,7.816
		C665.72,107.753,664.366,108.236,663.013,108.236"/>
	<path fill="#86bc25" d="M717.563,165.32c-1.545,0-3.057-0.637-4.15-1.875l-22.871-25.829c-2.023-2.294-1.803-5.784,0.477-7.809
		c2.291-2.04,5.783-1.82,7.818,0.471l22.875,25.83c2.027,2.295,1.812,5.785-0.482,7.808
		C720.183,164.859,718.874,165.32,717.563,165.32"/>
</g>
</svg>
