<?xml version="1.0" encoding="utf-8"?>
<!-- Generator: Adobe Illustrator 16.0.4, SVG Export Plug-In . SVG Version: 6.00 Build 0)  -->
<!DOCTYPE svg PUBLIC "-//W3C//DTD SVG 1.1//EN" "http://www.w3.org/Graphics/SVG/1.1/DTD/svg11.dtd">
<svg version="1.1" id="Layer_1" xmlns="http://www.w3.org/2000/svg" xmlns:xlink="http://www.w3.org/1999/xlink" x="0px" y="0px"
	 width="724.102px" height="280.861px" viewBox="64.573 78.791 724.102 227.861"
	 enable-background="new 64.573 78.791 724.102 227.861" xml:space="preserve">
 <g>
  <title>Layer 1</title>
  <g id="svg_1">
   <path id="svg_2" d="m102.696,207.491c-3.065,0 -5.54,-2.468 -5.54,-5.532l0,-29.158c0,-12.004 8.2,-25.96 18.661,-31.818l24.183,-13.503c2.684,-1.5 6.047,-0.543 7.522,2.124c1.501,2.666 0.554,6.046 -2.119,7.53l-24.194,13.515c-6.911,3.871 -12.985,14.217 -12.985,22.151l0,29.158c0,3.065 -2.474,5.533 -5.528,5.533" fill="#FFFFFF"/>
   <path id="svg_3" d="m168.485,268.844c-6.907,0 -13.465,-1.605 -18.469,-4.479l-34.398,-19.865c-5.894,-3.402 -9.238,-8.439 -9.181,-13.811c0.066,-5.381 3.532,-10.325 9.509,-13.588l33.972,-18.544c6.938,-3.789 13.025,-14.048 13.025,-21.95l0,-41.793c0,-11.567 7.17,-16.734 14.262,-16.734c3.17,0 6.448,0.958 9.741,2.859l34.39,19.857c10.358,5.993 18.476,20.029 18.476,32l0,39.719c0,11.959 -8.117,25.999 -18.476,31.984l-34.39,19.864c-4.999,2.875 -11.57,4.481 -18.461,4.481m8.721,-139.697c-2.776,0 -3.189,3.542 -3.189,5.667l0,41.793c0,11.995 -8.264,25.925 -18.796,31.669l-33.967,18.533c-2.735,1.502 -3.742,3.057 -3.749,4.021c-0.013,0.942 0.94,2.526 3.652,4.092l34.385,19.849c3.305,1.904 8.013,3.002 12.942,3.002c4.914,0 9.636,-1.098 12.935,-3.002l34.383,-19.849c6.886,-3.979 12.936,-14.463 12.936,-22.405l0,-39.719c0,-7.953 -6.05,-18.425 -12.936,-22.4l-34.383,-19.861c-1.99,-1.152 -3.395,-1.39 -4.213,-1.39" fill="#FFFFFF"/>
   <path id="svg_4" d="m168.484,306.652c-6.907,0 -13.462,-1.584 -18.468,-4.469l-67.139,-38.781c-10.379,-5.982 -18.412,-20.049 -18.303,-32.036l0.71,-74.355c0.116,-11.893 8.13,-26.087 18.235,-32.308l66.618,-41.025c5.111,-3.153 11.841,-4.887 18.959,-4.887c6.647,0 12.992,1.541 17.85,4.362l67.145,38.746c10.359,5.972 18.476,20.028 18.476,31.982l0,77.536c0,11.959 -8.117,26.015 -18.476,31.983l-67.145,38.783c-4.999,2.885 -11.571,4.469 -18.462,4.469m0.612,-216.792c-5.011,0 -9.81,1.181 -13.14,3.233l-66.626,41.042c-6.842,4.21 -12.91,14.944 -12.987,22.971l-0.703,74.376c-0.076,7.924 5.891,18.361 12.768,22.347l67.134,38.752c3.305,1.905 8.013,3.01 12.941,3.01c4.914,0 9.637,-1.104 12.936,-3.01l67.139,-38.752c6.886,-3.983 12.934,-14.45 12.934,-22.41l0,-77.536c0,-7.953 -6.048,-18.428 -12.934,-22.398l-67.138,-38.754c-3.164,-1.835 -7.654,-2.871 -12.324,-2.871" fill="#FFFFFF"/>
   <path id="svg_5" d="m384.045,243.339c-0.142,0 -0.271,0 -0.419,-0.019c-5.057,-0.403 -5.232,-5.314 -5.333,-7.955c-0.091,-2.744 -0.142,-7.312 -0.142,-13.609c0,-11.727 -7.351,-16.108 -13.515,-17.698c-1.992,-0.514 -4.218,-0.927 -6.615,-1.225c-1.133,-0.142 -2.087,-0.239 -2.905,-0.305c-1.797,0.101 -3.692,0.163 -5.655,0.204c-2.057,-0.064 -3.788,-0.939 -4.821,-2.59c-1.132,-1.81 -1.111,-4.211 0.027,-6.005c1.803,-2.862 4.875,-3.263 10.775,-2.714c24.273,-1.451 24.126,-7.883 23.977,-14.67c-0.004,-0.71 -0.025,-1.415 -0.025,-2.114c0,-6.75 -8.025,-14.425 -15.073,-14.425c-1.879,0 -3.268,-0.017 -4.561,-0.033c-2.623,-0.026 -4.866,-0.055 -10.3,0.071c-3.082,0.097 -5.59,-2.362 -5.67,-5.417c-0.057,-3.054 2.371,-5.586 5.426,-5.654c5.643,-0.121 7.942,-0.09 10.665,-0.067c1.258,0.014 2.603,0.031 4.439,0.031c13.192,0 26.153,12.621 26.153,25.494c0,0.625 0.005,1.252 0.02,1.877c0.207,9.948 -2.25,17.345 -12.458,21.719c5.765,4.129 11.183,11.271 11.183,23.521c0,9.328 0.116,12.905 0.194,14.26c0.238,0.787 0.309,1.637 0.181,2.514c-0.432,2.7 -2.843,4.809 -5.548,4.809" fill="#FFFFFF"/>
   <path id="svg_6" d="m327.803,243.189l-0.024,0c-3.061,-0.013 -5.52,-2.492 -5.509,-5.551l0.433,-82.343c0.014,-3.057 2.492,-5.514 5.542,-5.514l0.022,0c3.054,0.014 5.516,2.511 5.503,5.566l-0.426,82.341c-0.013,3.048 -2.495,5.501 -5.541,5.501" fill="#FFFFFF"/>
   <path id="svg_7" d="m462.548,244.607c-22.531,0 -37.102,-11.522 -37.102,-29.374l0,-60.62c0,-3.052 2.466,-5.522 5.538,-5.522c3.055,0 5.533,2.471 5.533,5.522l0,60.62c0,11.474 9.733,18.313 26.03,18.313c3.056,0 5.533,2.479 5.533,5.533s-2.476,5.528 -5.532,5.528" fill="#FFFFFF"/>
   <path id="svg_8" d="m465.177,244.607l-8.193,0c-3.061,0 -5.54,-2.474 -5.54,-5.526c0,-3.056 2.479,-5.533 5.54,-5.533l8.193,0c16.311,0 26.037,-6.84 26.037,-18.313l0,-60.62c0,-3.052 2.479,-5.522 5.531,-5.522c3.067,0 5.541,2.471 5.541,5.522l0,60.62c0,17.85 -14.564,29.372 -37.109,29.372" fill="#FFFFFF"/>
   <path id="svg_9" d="m581.511,242.677l-34.791,0c-3.053,0 -5.541,-2.47 -5.541,-5.521l0,-19.338c0,-6.345 -0.167,-20.137 -0.334,-33.482c-0.146,-12.22 -0.309,-23.928 -0.309,-28.874c0,-3.069 2.479,-5.54 5.545,-5.54c3.054,0 5.541,2.471 5.541,5.54c0,4.914 0.143,16.568 0.289,28.734c0.168,13.371 0.343,27.205 0.343,33.623l0,13.791l29.257,0c8.807,0 16.093,-6.441 16.947,-14.978c0.253,-2.481 -0.047,-6.075 -2.854,-9.172c-4.166,-4.613 -12.844,-7.059 -25.09,-7.059c-3.06,0 -5.526,-2.48 -5.526,-5.541c0,-3.052 2.468,-5.54 5.526,-5.54c15.683,0 26.874,3.611 33.304,10.704c5.823,6.43 6.034,13.85 5.669,17.699c-1.444,14.234 -13.458,24.954 -27.976,24.954" fill="#FFFFFF"/>
   <path id="svg_10" d="m571.997,201.133c-3.053,0 -5.539,-2.466 -5.539,-5.521c0,-3.057 2.486,-5.541 5.539,-5.541c15.931,0 22.713,-5.458 22.713,-18.264c0,-3.273 -2.736,-12.306 -11.562,-12.306l-14.862,0c-3.06,0 -5.539,-2.47 -5.539,-5.541c0,-3.055 2.479,-5.529 5.539,-5.529l14.862,0c15.439,0 22.634,13.946 22.634,23.376c0,13.39 -5.861,29.326 -33.785,29.326" fill="#FFFFFF"/>
   <path id="svg_11" d="m653.927,244.577c-3.063,0 -5.533,-2.47 -5.533,-5.521l0,-84.416c0,-3.054 2.47,-5.527 5.533,-5.527c3.06,0 5.535,2.474 5.535,5.527l0,84.416c0,3.051 -2.477,5.521 -5.535,5.521" fill="#FFFFFF"/>
   <path id="svg_12" d="m703.938,244.111c-1.37,0 -2.735,-0.514 -3.809,-1.524c-2.221,-2.101 -2.316,-5.61 -0.209,-7.829l79.199,-83.546c2.104,-2.223 5.606,-2.318 7.826,-0.222c2.219,2.113 2.317,5.61 0.213,7.833l-79.207,83.549c-1.087,1.153 -2.55,1.739 -4.013,1.739" fill="#FFFFFF"/>
   <path id="svg_13" d="m728.591,187.027c-1.479,0 -2.963,-0.58 -4.053,-1.764l-24.65,-26.484c-2.084,-2.234 -1.965,-5.735 0.275,-7.819c2.223,-2.082 5.734,-1.958 7.822,0.279l24.651,26.483c2.092,2.236 1.965,5.752 -0.271,7.817c-1.067,1.005 -2.421,1.488 -3.774,1.488" fill="#FFFFFF"/>
   <path id="svg_14" d="m783.142,244.111c-1.545,0 -3.057,-0.637 -4.151,-1.875l-22.871,-25.829c-2.023,-2.294 -1.803,-5.784 0.477,-7.809c2.291,-2.04 5.783,-1.82 7.818,0.471l22.875,25.83c2.027,2.295 1.812,5.785 -0.482,7.808c-1.047,0.943 -2.356,1.404 -3.666,1.404" fill="#FFFFFF"/>
  </g>
  <text xml:space="preserve" text-anchor="start" font-family="Helvetica, Arial, sans-serif" font-size="76" id="svg_15" y="329" x="372.59375" stroke-width="0" stroke="#000" fill="#ffffff">Console</text>
 </g>
</svg>
